<mxfile host="app.diagrams.net" modified="2020-04-28T12:36:04.848Z" agent="5.0 (Windows NT 10.0; Win64; x64) AppleWebKit/537.36 (KHTML, like Gecko) Chrome/81.0.4044.122 Safari/537.36" etag="zXu-H3HlitibK04lCiNL" version="13.0.2" type="github">
  <diagram id="XCA9C4f2JsbgDVpI73ji" name="Page-1">
    <mxGraphModel dx="3671" dy="2659" grid="1" gridSize="10" guides="1" tooltips="1" connect="1" arrows="1" fold="1" page="1" pageScale="1" pageWidth="827" pageHeight="1169" math="0" shadow="0">
      <root>
        <mxCell id="0" />
        <mxCell id="1" parent="0" />
        <mxCell id="b1CXoUU1IrnRyMRFLuJq-60" value="package" style="shape=folder;fontStyle=1;spacingTop=10;tabWidth=89;tabHeight=38;tabPosition=left;html=1;fontSize=12;" vertex="1" parent="1">
          <mxGeometry x="860" y="-900" width="760" height="770" as="geometry" />
        </mxCell>
        <mxCell id="b1CXoUU1IrnRyMRFLuJq-34" value="package" style="shape=folder;fontStyle=1;spacingTop=10;tabWidth=75;tabHeight=28;tabPosition=left;html=1;fontSize=12;" vertex="1" parent="1">
          <mxGeometry x="-210" y="-860" width="800" height="630" as="geometry" />
        </mxCell>
        <mxCell id="b1CXoUU1IrnRyMRFLuJq-10" value="" style="shape=folder;fontStyle=1;spacingTop=10;tabWidth=112;tabHeight=46;tabPosition=left;html=1;treeMoving=1;treeFolding=1;autosize=0;" vertex="1" parent="1">
          <mxGeometry x="-30" y="-80" width="1220" height="810" as="geometry" />
        </mxCell>
        <mxCell id="O8AdQkVKEZQIfbViCcOW-5" value="PlayerBoard&#xa;" style="swimlane;fontStyle=1;align=center;verticalAlign=top;childLayout=stackLayout;horizontal=1;startSize=26;horizontalStack=0;resizeParent=1;resizeParentMax=0;resizeLast=0;collapsible=1;marginBottom=0;" parent="1" vertex="1">
          <mxGeometry x="40" y="40" width="320" height="630" as="geometry" />
        </mxCell>
        <mxCell id="O8AdQkVKEZQIfbViCcOW-6" value="int mScoreTrack&#xa;ArrayList mPatternLines&#xa;ArrayList mWall&#xa;ArrayList mFloorLine" style="text;strokeColor=none;fillColor=none;align=left;verticalAlign=top;spacingLeft=4;spacingRight=4;overflow=hidden;rotatable=0;points=[[0,0.5],[1,0.5]];portConstraint=eastwest;" parent="O8AdQkVKEZQIfbViCcOW-5" vertex="1">
          <mxGeometry y="26" width="320" height="64" as="geometry" />
        </mxCell>
        <mxCell id="O8AdQkVKEZQIfbViCcOW-7" value="" style="line;strokeWidth=1;fillColor=none;align=left;verticalAlign=middle;spacingTop=-1;spacingLeft=3;spacingRight=3;rotatable=0;labelPosition=right;points=[];portConstraint=eastwest;" parent="O8AdQkVKEZQIfbViCcOW-5" vertex="1">
          <mxGeometry y="90" width="320" height="8" as="geometry" />
        </mxCell>
        <mxCell id="O8AdQkVKEZQIfbViCcOW-8" value="PlayerBoard()&#xa;void decorateWall(ArrayList)&#xa;void initializePatternLines()&#xa;void initializeWall()&#xa;void initializeFloorLine()&#xa;void addToPatternLine(Tile tile, int row)&#xa;void addToWall(Tile tile, int row, int column)&#xa;void addToWall(Tile tile, int row)&#xa;void addToFloorLine(Tile tile)&#xa;&#xa;--GETTERS--&#xa;int getScoreTrack()&#xa;Tile getInPatternLines(int i, int j)&#xa;Tile getInWall(int i, int j)&#xa;Tile getInFloorLine(int i)&#xa;&#xa;boolean isPatterLineFull(int row)&#xa;boolean isWallCaseNotEmpty(int row, int column)&#xa;boolean isFloorLineFull()&#xa;boolean canBePlacedOnPatternLine(Tile tile, int row)&#xa;boolean canBePlacedOnWall(Tile tile, int row, int column)&#xa;&#xa;public boolean isWallCase[COLOR](int row, int column)&#xa;boolean isWallRowFull()&#xa;&#xa;--SETTERS--&#xa;void setScoreTrack(int newScore)&#xa;void setInPatterLines(int i, int j, Tile tile)&#xa;void setInWall(int i, int j, Tile tile)&#xa;void setInFloorLine(int i, Tile tile)&#xa;" style="text;strokeColor=none;fillColor=none;align=left;verticalAlign=top;spacingLeft=4;spacingRight=4;overflow=hidden;rotatable=0;points=[[0,0.5],[1,0.5]];portConstraint=eastwest;" parent="O8AdQkVKEZQIfbViCcOW-5" vertex="1">
          <mxGeometry y="98" width="320" height="532" as="geometry" />
        </mxCell>
        <mxCell id="O8AdQkVKEZQIfbViCcOW-20" value="PlayerBoardException" style="swimlane;fontStyle=0;childLayout=stackLayout;horizontal=1;startSize=26;fillColor=none;horizontalStack=0;resizeParent=1;resizeParentMax=0;resizeLast=0;collapsible=1;marginBottom=0;" parent="1" vertex="1">
          <mxGeometry x="50" y="585" width="140" height="52" as="geometry" />
        </mxCell>
        <mxCell id="O8AdQkVKEZQIfbViCcOW-21" value="PlayerBoardException()" style="text;strokeColor=none;fillColor=none;align=left;verticalAlign=top;spacingLeft=4;spacingRight=4;overflow=hidden;rotatable=0;points=[[0,0.5],[1,0.5]];portConstraint=eastwest;" parent="O8AdQkVKEZQIfbViCcOW-20" vertex="1">
          <mxGeometry y="26" width="140" height="26" as="geometry" />
        </mxCell>
        <mxCell id="b1CXoUU1IrnRyMRFLuJq-11" value="player" style="text;strokeColor=none;fillColor=none;align=left;verticalAlign=top;spacingLeft=4;spacingRight=4;overflow=hidden;rotatable=0;points=[[0,0.5],[1,0.5]];portConstraint=eastwest;fontStyle=1;fontSize=22;" vertex="1" parent="1">
          <mxGeometry x="-20" y="-70" width="100" height="26" as="geometry" />
        </mxCell>
        <mxCell id="O8AdQkVKEZQIfbViCcOW-24" value="&lt;&lt;Abstract&gt;&gt;&#xa;Player" style="swimlane;fontStyle=1;align=center;verticalAlign=top;childLayout=stackLayout;horizontal=1;startSize=37;horizontalStack=0;resizeParent=1;resizeParentMax=0;resizeLast=0;collapsible=1;marginBottom=0;" parent="1" vertex="1">
          <mxGeometry x="700" y="40" width="360" height="260" as="geometry" />
        </mxCell>
        <mxCell id="O8AdQkVKEZQIfbViCcOW-25" value="PlayerBoard mPlayerBoard" style="text;strokeColor=none;fillColor=none;align=left;verticalAlign=top;spacingLeft=4;spacingRight=4;overflow=hidden;rotatable=0;points=[[0,0.5],[1,0.5]];portConstraint=eastwest;" parent="O8AdQkVKEZQIfbViCcOW-24" vertex="1">
          <mxGeometry y="37" width="360" height="26" as="geometry" />
        </mxCell>
        <mxCell id="O8AdQkVKEZQIfbViCcOW-26" value="" style="line;strokeWidth=1;fillColor=none;align=left;verticalAlign=middle;spacingTop=-1;spacingLeft=3;spacingRight=3;rotatable=0;labelPosition=right;points=[];portConstraint=eastwest;" parent="O8AdQkVKEZQIfbViCcOW-24" vertex="1">
          <mxGeometry y="63" width="360" height="8" as="geometry" />
        </mxCell>
        <mxCell id="O8AdQkVKEZQIfbViCcOW-27" value="Player()&#xa;&#xa;--ACTIONS--&#xa;void play(PlayerMove move, ArrayList&lt;Tile&gt; asideTiles)&#xa;void takeTilesFromFactory(PlayerMove move)&#xa;void takeTilesFromTable(PlayerMove move)&#xa;void addTileInPattern(PlayerMove move)&#xa;void addTileInWall(PlayerMove move)&#xa;void addTileInFloor(PlayerMove move, ArrayList&lt;Tile&gt; asideTiles)&#xa;void decorateWall(ArrayList&lt;Tile&gt; asideTiles)&#xa;&#xa;boolean checkGameOver()&#xa;" style="text;strokeColor=none;fillColor=none;align=left;verticalAlign=top;spacingLeft=4;spacingRight=4;overflow=hidden;rotatable=0;points=[[0,0.5],[1,0.5]];portConstraint=eastwest;" parent="O8AdQkVKEZQIfbViCcOW-24" vertex="1">
          <mxGeometry y="71" width="360" height="189" as="geometry" />
        </mxCell>
        <mxCell id="b1CXoUU1IrnRyMRFLuJq-6" value="HumanPlayer" style="swimlane;fontStyle=1;align=center;verticalAlign=top;childLayout=stackLayout;horizontal=1;startSize=26;horizontalStack=0;resizeParent=1;resizeParentMax=0;resizeLast=0;collapsible=1;marginBottom=0;" vertex="1" parent="1">
          <mxGeometry x="700" y="470" width="360" height="60" as="geometry" />
        </mxCell>
        <mxCell id="b1CXoUU1IrnRyMRFLuJq-8" value="" style="line;strokeWidth=1;fillColor=none;align=left;verticalAlign=middle;spacingTop=-1;spacingLeft=3;spacingRight=3;rotatable=0;labelPosition=right;points=[];portConstraint=eastwest;" vertex="1" parent="b1CXoUU1IrnRyMRFLuJq-6">
          <mxGeometry y="26" width="360" height="8" as="geometry" />
        </mxCell>
        <mxCell id="b1CXoUU1IrnRyMRFLuJq-9" value="HumanPlayer()" style="text;strokeColor=none;fillColor=none;align=left;verticalAlign=top;spacingLeft=4;spacingRight=4;overflow=hidden;rotatable=0;points=[[0,0.5],[1,0.5]];portConstraint=eastwest;" vertex="1" parent="b1CXoUU1IrnRyMRFLuJq-6">
          <mxGeometry y="34" width="360" height="26" as="geometry" />
        </mxCell>
        <mxCell id="b1CXoUU1IrnRyMRFLuJq-18" value="TilesFactory" style="swimlane;fontStyle=1;align=center;verticalAlign=top;childLayout=stackLayout;horizontal=1;startSize=25;horizontalStack=0;resizeParent=1;resizeParentMax=0;resizeLast=0;collapsible=1;marginBottom=0;fontSize=12;" vertex="1" parent="1">
          <mxGeometry y="-830" width="390" height="140" as="geometry" />
        </mxCell>
        <mxCell id="b1CXoUU1IrnRyMRFLuJq-19" value="ArrayList(Tile) mTiles&#xa;Random mRandom" style="text;strokeColor=none;fillColor=none;align=left;verticalAlign=top;spacingLeft=4;spacingRight=4;overflow=hidden;rotatable=0;points=[[0,0.5],[1,0.5]];portConstraint=eastwest;" vertex="1" parent="b1CXoUU1IrnRyMRFLuJq-18">
          <mxGeometry y="25" width="390" height="35" as="geometry" />
        </mxCell>
        <mxCell id="b1CXoUU1IrnRyMRFLuJq-20" value="" style="line;strokeWidth=1;fillColor=none;align=left;verticalAlign=middle;spacingTop=-1;spacingLeft=3;spacingRight=3;rotatable=0;labelPosition=right;points=[];portConstraint=eastwest;" vertex="1" parent="b1CXoUU1IrnRyMRFLuJq-18">
          <mxGeometry y="60" width="390" height="8" as="geometry" />
        </mxCell>
        <mxCell id="b1CXoUU1IrnRyMRFLuJq-21" value="TilesFactory()&#xa;void prepare(ArrayList&lt;Tile&gt; remainingTiles, ArrayList&lt;Tile&gt; sideTiles)&#xa;ArrayList&lt;Tile&gt; take(Tile tile)&#xa;ArrayList&lt;Tile&gt; getTiles()&#xa;" style="text;strokeColor=none;fillColor=none;align=left;verticalAlign=top;spacingLeft=4;spacingRight=4;overflow=hidden;rotatable=0;points=[[0,0.5],[1,0.5]];portConstraint=eastwest;" vertex="1" parent="b1CXoUU1IrnRyMRFLuJq-18">
          <mxGeometry y="68" width="390" height="72" as="geometry" />
        </mxCell>
        <mxCell id="b1CXoUU1IrnRyMRFLuJq-22" value="&lt;&lt;Enum&gt;&gt;&#xa;Tile" style="swimlane;fontStyle=1;align=center;verticalAlign=top;childLayout=stackLayout;horizontal=1;startSize=43;horizontalStack=0;resizeParent=1;resizeParentMax=0;resizeLast=0;collapsible=1;marginBottom=0;fontSize=12;" vertex="1" parent="1">
          <mxGeometry y="-640" width="240" height="390" as="geometry" />
        </mxCell>
        <mxCell id="b1CXoUU1IrnRyMRFLuJq-23" value="BLUE&#xa;WHITE&#xa;BLACK&#xa;RED&#xa;ORANGE&#xa;FIRST_PLAYER_MAKER&#xa;EMPTY&#xa;boolean mIsFirstPlayerMakerTaken&#xa;" style="text;strokeColor=none;fillColor=none;align=left;verticalAlign=top;spacingLeft=4;spacingRight=4;overflow=hidden;rotatable=0;points=[[0,0.5],[1,0.5]];portConstraint=eastwest;" vertex="1" parent="b1CXoUU1IrnRyMRFLuJq-22">
          <mxGeometry y="43" width="240" height="127" as="geometry" />
        </mxCell>
        <mxCell id="b1CXoUU1IrnRyMRFLuJq-24" value="" style="line;strokeWidth=1;fillColor=none;align=left;verticalAlign=middle;spacingTop=-1;spacingLeft=3;spacingRight=3;rotatable=0;labelPosition=right;points=[];portConstraint=eastwest;" vertex="1" parent="b1CXoUU1IrnRyMRFLuJq-22">
          <mxGeometry y="170" width="240" height="8" as="geometry" />
        </mxCell>
        <mxCell id="b1CXoUU1IrnRyMRFLuJq-25" value="static void onGameStart()&#xa;static Tile takeFirstPlayerMaker()&#xa;static boolean isFirstPlayerMakerTaken()&#xa;" style="text;strokeColor=none;fillColor=none;align=left;verticalAlign=top;spacingLeft=4;spacingRight=4;overflow=hidden;rotatable=0;points=[[0,0.5],[1,0.5]];portConstraint=eastwest;" vertex="1" parent="b1CXoUU1IrnRyMRFLuJq-22">
          <mxGeometry y="178" width="240" height="212" as="geometry" />
        </mxCell>
        <mxCell id="b1CXoUU1IrnRyMRFLuJq-30" value="FirstPlayerMarkerException" style="swimlane;fontStyle=1;align=center;verticalAlign=top;childLayout=stackLayout;horizontal=1;startSize=26;horizontalStack=0;resizeParent=1;resizeParentMax=0;resizeLast=0;collapsible=1;marginBottom=0;fontSize=12;" vertex="1" parent="1">
          <mxGeometry x="10" y="-390" width="180" height="86" as="geometry" />
        </mxCell>
        <mxCell id="b1CXoUU1IrnRyMRFLuJq-31" value="String ALREADY_TAKEN" style="text;strokeColor=none;fillColor=none;align=left;verticalAlign=top;spacingLeft=4;spacingRight=4;overflow=hidden;rotatable=0;points=[[0,0.5],[1,0.5]];portConstraint=eastwest;" vertex="1" parent="b1CXoUU1IrnRyMRFLuJq-30">
          <mxGeometry y="26" width="180" height="26" as="geometry" />
        </mxCell>
        <mxCell id="b1CXoUU1IrnRyMRFLuJq-32" value="" style="line;strokeWidth=1;fillColor=none;align=left;verticalAlign=middle;spacingTop=-1;spacingLeft=3;spacingRight=3;rotatable=0;labelPosition=right;points=[];portConstraint=eastwest;" vertex="1" parent="b1CXoUU1IrnRyMRFLuJq-30">
          <mxGeometry y="52" width="180" height="8" as="geometry" />
        </mxCell>
        <mxCell id="b1CXoUU1IrnRyMRFLuJq-33" value="FirstPlayerMarkerException()" style="text;strokeColor=none;fillColor=none;align=left;verticalAlign=top;spacingLeft=4;spacingRight=4;overflow=hidden;rotatable=0;points=[[0,0.5],[1,0.5]];portConstraint=eastwest;" vertex="1" parent="b1CXoUU1IrnRyMRFLuJq-30">
          <mxGeometry y="60" width="180" height="26" as="geometry" />
        </mxCell>
        <mxCell id="b1CXoUU1IrnRyMRFLuJq-35" value="tiles" style="text;strokeColor=none;fillColor=none;align=left;verticalAlign=top;spacingLeft=4;spacingRight=4;overflow=hidden;rotatable=0;points=[[0,0.5],[1,0.5]];portConstraint=eastwest;fontSize=21;fontStyle=1" vertex="1" parent="1">
          <mxGeometry x="-200" y="-860" width="100" height="26" as="geometry" />
        </mxCell>
        <mxCell id="b1CXoUU1IrnRyMRFLuJq-37" value="&lt;&lt;Abstract&gt;&gt;&#xa;Move" style="swimlane;fontStyle=1;align=center;verticalAlign=top;childLayout=stackLayout;horizontal=1;startSize=39;horizontalStack=0;resizeParent=1;resizeParentMax=0;resizeLast=0;collapsible=1;marginBottom=0;fontSize=12;" vertex="1" parent="1">
          <mxGeometry x="900" y="-820" width="290" height="240" as="geometry" />
        </mxCell>
        <mxCell id="b1CXoUU1IrnRyMRFLuJq-38" value="Type mType" style="text;strokeColor=none;fillColor=none;align=left;verticalAlign=top;spacingLeft=4;spacingRight=4;overflow=hidden;rotatable=0;points=[[0,0.5],[1,0.5]];portConstraint=eastwest;" vertex="1" parent="b1CXoUU1IrnRyMRFLuJq-37">
          <mxGeometry y="39" width="290" height="26" as="geometry" />
        </mxCell>
        <mxCell id="b1CXoUU1IrnRyMRFLuJq-39" value="" style="line;strokeWidth=1;fillColor=none;align=left;verticalAlign=middle;spacingTop=-1;spacingLeft=3;spacingRight=3;rotatable=0;labelPosition=right;points=[];portConstraint=eastwest;" vertex="1" parent="b1CXoUU1IrnRyMRFLuJq-37">
          <mxGeometry y="65" width="290" height="8" as="geometry" />
        </mxCell>
        <mxCell id="b1CXoUU1IrnRyMRFLuJq-40" value="Move(Type type, Type... expected)&#xa;void checkType(Type current, Type... expected)&#xa;Type getType()&#xa;&#xa;" style="text;strokeColor=none;fillColor=none;align=left;verticalAlign=top;spacingLeft=4;spacingRight=4;overflow=hidden;rotatable=0;points=[[0,0.5],[1,0.5]];portConstraint=eastwest;" vertex="1" parent="b1CXoUU1IrnRyMRFLuJq-37">
          <mxGeometry y="73" width="290" height="167" as="geometry" />
        </mxCell>
        <mxCell id="b1CXoUU1IrnRyMRFLuJq-41" value="MoveException" style="swimlane;fontStyle=1;align=center;verticalAlign=top;childLayout=stackLayout;horizontal=1;startSize=26;horizontalStack=0;resizeParent=1;resizeParentMax=0;resizeLast=0;collapsible=1;marginBottom=0;fontSize=12;" vertex="1" parent="1">
          <mxGeometry x="910" y="-680" width="190" height="86" as="geometry" />
        </mxCell>
        <mxCell id="b1CXoUU1IrnRyMRFLuJq-42" value="String TYPE_CONSTRUCTOR" style="text;strokeColor=none;fillColor=none;align=left;verticalAlign=top;spacingLeft=4;spacingRight=4;overflow=hidden;rotatable=0;points=[[0,0.5],[1,0.5]];portConstraint=eastwest;" vertex="1" parent="b1CXoUU1IrnRyMRFLuJq-41">
          <mxGeometry y="26" width="190" height="26" as="geometry" />
        </mxCell>
        <mxCell id="b1CXoUU1IrnRyMRFLuJq-43" value="" style="line;strokeWidth=1;fillColor=none;align=left;verticalAlign=middle;spacingTop=-1;spacingLeft=3;spacingRight=3;rotatable=0;labelPosition=right;points=[];portConstraint=eastwest;" vertex="1" parent="b1CXoUU1IrnRyMRFLuJq-41">
          <mxGeometry y="52" width="190" height="8" as="geometry" />
        </mxCell>
        <mxCell id="b1CXoUU1IrnRyMRFLuJq-44" value="MoveException()" style="text;strokeColor=none;fillColor=none;align=left;verticalAlign=top;spacingLeft=4;spacingRight=4;overflow=hidden;rotatable=0;points=[[0,0.5],[1,0.5]];portConstraint=eastwest;" vertex="1" parent="b1CXoUU1IrnRyMRFLuJq-41">
          <mxGeometry y="60" width="190" height="26" as="geometry" />
        </mxCell>
        <mxCell id="b1CXoUU1IrnRyMRFLuJq-45" value="&lt;&lt;Enum&gt;&gt;&#xa;Type" style="swimlane;fontStyle=1;align=center;verticalAlign=top;childLayout=stackLayout;horizontal=1;startSize=43;horizontalStack=0;resizeParent=1;resizeParentMax=0;resizeLast=0;collapsible=1;marginBottom=0;fontSize=12;" vertex="1" parent="1">
          <mxGeometry x="1260" y="-820" width="220" height="174" as="geometry" />
        </mxCell>
        <mxCell id="b1CXoUU1IrnRyMRFLuJq-46" value="PLAYER_TAKE_FACTORY&#xa;PLAYER_TAKE_TABLE&#xa;PLAYER_PLACE_TILE_IN_PATTERN&#xa;PLAYER_PLACE_TILE_IN_WALL&#xa;PLAYER_PLACE_TILE_IN_FLOOR &#xa;" style="text;strokeColor=none;fillColor=none;align=left;verticalAlign=top;spacingLeft=4;spacingRight=4;overflow=hidden;rotatable=0;points=[[0,0.5],[1,0.5]];portConstraint=eastwest;" vertex="1" parent="b1CXoUU1IrnRyMRFLuJq-45">
          <mxGeometry y="43" width="220" height="97" as="geometry" />
        </mxCell>
        <mxCell id="b1CXoUU1IrnRyMRFLuJq-47" value="" style="line;strokeWidth=1;fillColor=none;align=left;verticalAlign=middle;spacingTop=-1;spacingLeft=3;spacingRight=3;rotatable=0;labelPosition=right;points=[];portConstraint=eastwest;" vertex="1" parent="b1CXoUU1IrnRyMRFLuJq-45">
          <mxGeometry y="140" width="220" height="8" as="geometry" />
        </mxCell>
        <mxCell id="b1CXoUU1IrnRyMRFLuJq-48" value="+ method(type): type" style="text;strokeColor=none;fillColor=none;align=left;verticalAlign=top;spacingLeft=4;spacingRight=4;overflow=hidden;rotatable=0;points=[[0,0.5],[1,0.5]];portConstraint=eastwest;" vertex="1" parent="b1CXoUU1IrnRyMRFLuJq-45">
          <mxGeometry y="148" width="220" height="26" as="geometry" />
        </mxCell>
        <mxCell id="b1CXoUU1IrnRyMRFLuJq-49" value="PlayerMove" style="swimlane;fontStyle=1;align=center;verticalAlign=top;childLayout=stackLayout;horizontal=1;startSize=26;horizontalStack=0;resizeParent=1;resizeParentMax=0;resizeLast=0;collapsible=1;marginBottom=0;fontSize=12;" vertex="1" parent="1">
          <mxGeometry x="900" y="-532" width="550" height="370" as="geometry" />
        </mxCell>
        <mxCell id="b1CXoUU1IrnRyMRFLuJq-50" value="Player mPlayer&#xa;ArrayList&lt;Tile&gt; mTilesSelected&#xa;boolean mIsFirstToTakeFromTable&#xa;Tile mTileSelected&#xa;int mRow&#xa;int mColumn&#xa; " style="text;strokeColor=none;fillColor=none;align=left;verticalAlign=top;spacingLeft=4;spacingRight=4;overflow=hidden;rotatable=0;points=[[0,0.5],[1,0.5]];portConstraint=eastwest;" vertex="1" parent="b1CXoUU1IrnRyMRFLuJq-49">
          <mxGeometry y="26" width="550" height="104" as="geometry" />
        </mxCell>
        <mxCell id="b1CXoUU1IrnRyMRFLuJq-51" value="" style="line;strokeWidth=1;fillColor=none;align=left;verticalAlign=middle;spacingTop=-1;spacingLeft=3;spacingRight=3;rotatable=0;labelPosition=right;points=[];portConstraint=eastwest;" vertex="1" parent="b1CXoUU1IrnRyMRFLuJq-49">
          <mxGeometry y="130" width="550" height="8" as="geometry" />
        </mxCell>
        <mxCell id="b1CXoUU1IrnRyMRFLuJq-52" value="PlayerMove(Type type, Player player, ArrayList&lt;Tile&gt; tilesSelected)&#xa;PlayerMove(Type type, Player player, ArrayList&lt;Tile&gt; tilesSelected, boolean isFirstToTakeFromTable)&#xa;PlayerMove(Type type, Player player, Tile tileSelected, int row)&#xa;PlayerMove(Type type, Player player, Tile tileSelected, int row, int column)&#xa;PlayerMove(Type type, Player player, Tile tileSelected)&#xa;&#xa;--GETTERS--&#xa;Player getPlayer()&#xa;Tile getTileSelected()&#xa;boolean isFirstToTakeFromTable()&#xa;ArrayList&lt;Tile&gt; getTilesSelected()&#xa;int getRow()&#xa;int getColumn()&#xa;" style="text;strokeColor=none;fillColor=none;align=left;verticalAlign=top;spacingLeft=4;spacingRight=4;overflow=hidden;rotatable=0;points=[[0,0.5],[1,0.5]];portConstraint=eastwest;" vertex="1" parent="b1CXoUU1IrnRyMRFLuJq-49">
          <mxGeometry y="138" width="550" height="232" as="geometry" />
        </mxCell>
        <mxCell id="b1CXoUU1IrnRyMRFLuJq-61" value="move" style="text;strokeColor=none;fillColor=none;align=left;verticalAlign=top;spacingLeft=4;spacingRight=4;overflow=hidden;rotatable=0;points=[[0,0.5],[1,0.5]];portConstraint=eastwest;fontSize=25;fontStyle=1" vertex="1" parent="1">
          <mxGeometry x="870" y="-900" width="100" height="25" as="geometry" />
        </mxCell>
      </root>
    </mxGraphModel>
  </diagram>
</mxfile>
